<svg width="1304" height="420" viewBox="0 0 1304 420" fill="none" xmlns="http://www.w3.org/2000/svg">
<path d="M143.04 274.244H107.528C107.055 270.598 106.084 267.308 104.616 264.372C103.149 261.437 101.207 258.927 98.7926 256.844C96.3778 254.76 93.5133 253.174 90.1989 252.085C86.9318 250.949 83.3097 250.381 79.3324 250.381C72.2775 250.381 66.1932 252.109 61.0795 255.565C56.0133 259.022 52.107 264.017 49.3608 270.551C46.6619 277.085 45.3125 284.992 45.3125 294.273C45.3125 303.932 46.6856 312.028 49.4318 318.562C52.2254 325.049 56.1316 329.95 61.1506 333.264C66.2169 336.531 72.2064 338.165 79.1193 338.165C83.0019 338.165 86.5294 337.668 89.7017 336.673C92.9214 335.679 95.7386 334.235 98.1534 332.341C100.616 330.4 102.628 328.056 104.19 325.31C105.8 322.516 106.913 319.367 107.528 315.864L143.04 316.077C142.424 322.516 140.554 328.861 137.429 335.111C134.351 341.361 130.114 347.066 124.716 352.227C119.318 357.341 112.737 361.413 104.972 364.443C97.2538 367.473 88.3996 368.989 78.4091 368.989C65.2462 368.989 53.4564 366.1 43.0398 360.324C32.6705 354.5 24.4792 346.025 18.4659 334.898C12.4527 323.771 9.44602 310.229 9.44602 294.273C9.44602 278.269 12.5 264.704 18.608 253.577C24.7159 242.45 32.9782 233.998 43.3949 228.222C53.8116 222.445 65.483 219.557 78.4091 219.557C87.2159 219.557 95.3598 220.788 102.841 223.25C110.322 225.665 116.903 229.216 122.585 233.903C128.267 238.544 132.884 244.249 136.435 251.02C139.986 257.791 142.188 265.532 143.04 274.244ZM269.154 221.545H304.239V315.366C304.239 326.209 301.659 335.655 296.498 343.705C291.337 351.706 284.14 357.909 274.907 362.312C265.674 366.669 254.95 368.847 242.734 368.847C230.376 368.847 219.58 366.669 210.347 362.312C201.114 357.909 193.941 351.706 188.827 343.705C183.714 335.655 181.157 326.209 181.157 315.366V221.545H216.313V312.312C216.313 317.331 217.402 321.806 219.58 325.736C221.806 329.666 224.907 332.743 228.884 334.969C232.862 337.194 237.478 338.307 242.734 338.307C247.989 338.307 252.582 337.194 256.512 334.969C260.489 332.743 263.591 329.666 265.816 325.736C268.041 321.806 269.154 317.331 269.154 312.312V221.545ZM344.274 367V221.545H404.928C415.818 221.545 424.932 223.084 432.271 226.162C439.658 229.24 445.197 233.548 448.891 239.088C452.631 244.628 454.501 251.044 454.501 258.335C454.501 263.875 453.341 268.823 451.021 273.179C448.701 277.488 445.505 281.062 441.433 283.903C437.361 286.744 432.65 288.733 427.3 289.869V291.29C433.171 291.574 438.592 293.16 443.564 296.048C448.583 298.937 452.607 302.961 455.638 308.122C458.668 313.236 460.183 319.296 460.183 326.304C460.183 334.116 458.195 341.1 454.217 347.256C450.24 353.364 444.487 358.193 436.959 361.744C429.43 365.248 420.292 367 409.544 367H344.274ZM379.43 338.662H401.163C408.786 338.662 414.397 337.218 417.996 334.33C421.642 331.441 423.464 327.417 423.464 322.256C423.464 318.515 422.589 315.295 420.837 312.597C419.085 309.85 416.599 307.743 413.379 306.276C410.16 304.76 406.301 304.003 401.803 304.003H379.43V338.662ZM379.43 281.347H398.891C402.726 281.347 406.135 280.707 409.118 279.429C412.101 278.151 414.421 276.304 416.078 273.889C417.783 271.474 418.635 268.562 418.635 265.153C418.635 260.277 416.907 256.441 413.45 253.648C409.994 250.854 405.33 249.457 399.459 249.457H379.43V281.347ZM530.243 221.545V367H495.087V221.545H530.243ZM570.313 367V221.545H669.603V250.097H605.469V279.926H663.282V308.548H605.469V367H570.313ZM698.061 221.545H737.337L768.089 282.412H769.368L800.121 221.545H839.396L786.2 318.42V367H751.257V318.42L698.061 221.545Z" fill="white"/>
<path d="M32.1165 135L2.4858 33.1818H29.6804L45.0426 99.9006H45.8878L63.4375 33.1818H85.6108L103.161 100.05H104.006L119.418 33.1818H146.562L116.982 135H93.267L74.9219 73.2528H74.1264L55.7812 135H32.1165ZM169.329 135V33.1818H240.324V53.1676H193.939V74.0483H236.694V94.0838H193.939V115.014H240.324V135H169.329ZM268.336 135V33.1818H292.945V115.014H335.303V135H268.336ZM449.1 70.071H424.242C423.91 67.5189 423.231 65.2154 422.203 63.1605C421.176 61.1056 419.817 59.349 418.127 57.8906C416.436 56.4323 414.431 55.322 412.111 54.5597C409.824 53.7642 407.289 53.3665 404.505 53.3665C399.566 53.3665 395.307 54.5762 391.728 56.9957C388.181 59.4152 385.447 62.9119 383.524 67.4858C381.635 72.0597 380.691 77.5947 380.691 84.0909C380.691 90.8523 381.652 96.5199 383.574 101.094C385.53 105.634 388.264 109.065 391.777 111.385C395.324 113.672 399.516 114.815 404.355 114.815C407.073 114.815 409.542 114.467 411.763 113.771C414.017 113.075 415.989 112.064 417.679 110.739C419.403 109.38 420.811 107.739 421.905 105.817C423.032 103.861 423.811 101.657 424.242 99.2045L449.1 99.3537C448.669 103.861 447.36 108.303 445.172 112.678C443.018 117.053 440.051 121.046 436.273 124.659C432.495 128.239 427.888 131.089 422.452 133.21C417.05 135.331 410.852 136.392 403.858 136.392C394.644 136.392 386.391 134.37 379.1 130.327C371.841 126.25 366.107 120.317 361.898 112.528C357.689 104.74 355.584 95.2604 355.584 84.0909C355.584 72.8883 357.722 63.3925 361.997 55.6037C366.273 47.8149 372.057 41.8987 379.348 37.8551C386.64 33.8115 394.81 31.7898 403.858 31.7898C410.023 31.7898 415.724 32.6515 420.961 34.375C426.197 36.0653 430.804 38.5511 434.782 41.8324C438.759 45.0805 441.99 49.0743 444.476 53.8139C446.962 58.5535 448.503 63.9725 449.1 70.071ZM571.883 84.0909C571.883 95.2936 569.728 104.789 565.42 112.578C561.111 120.367 555.277 126.283 547.92 130.327C540.595 134.37 532.375 136.392 523.26 136.392C514.113 136.392 505.876 134.354 498.552 130.277C491.227 126.2 485.41 120.284 481.101 112.528C476.826 104.74 474.688 95.2604 474.688 84.0909C474.688 72.8883 476.826 63.3925 481.101 55.6037C485.41 47.8149 491.227 41.8987 498.552 37.8551C505.876 33.8115 514.113 31.7898 523.26 31.7898C532.375 31.7898 540.595 33.8115 547.92 37.8551C555.277 41.8987 561.111 47.8149 565.42 55.6037C569.728 63.3925 571.883 72.8883 571.883 84.0909ZM546.726 84.0909C546.726 77.4621 545.782 71.8608 543.893 67.2869C542.036 62.7131 539.352 59.2495 535.839 56.8963C532.358 54.5431 528.166 53.3665 523.26 53.3665C518.388 53.3665 514.196 54.5431 510.682 56.8963C507.169 59.2495 504.468 62.7131 502.579 67.2869C500.723 71.8608 499.795 77.4621 499.795 84.0909C499.795 90.7197 500.723 96.321 502.579 100.895C504.468 105.469 507.169 108.932 510.682 111.286C514.196 113.639 518.388 114.815 523.26 114.815C528.166 114.815 532.358 113.639 535.839 111.286C539.352 108.932 542.036 105.469 543.893 100.895C545.782 96.321 546.726 90.7197 546.726 84.0909ZM598.85 33.1818H629.326L655.179 96.2216H656.372L682.224 33.1818H712.7V135H688.737V72.4574H687.892L663.431 134.354H648.119L623.659 72.1094H622.814V135H598.85V33.1818ZM740.65 135V33.1818H811.644V53.1676H765.259V74.0483H808.015V94.0838H765.259V115.014H811.644V135H740.65ZM879.003 53.1676V33.1818H965.061V53.1676H934.188V135H909.926V53.1676H879.003ZM1081.13 84.0909C1081.13 95.2936 1078.98 104.789 1074.67 112.578C1070.36 120.367 1064.53 126.283 1057.17 130.327C1049.84 134.37 1041.63 136.392 1032.51 136.392C1023.36 136.392 1015.13 134.354 1007.8 130.277C1000.48 126.2 994.66 120.284 990.351 112.528C986.076 104.74 983.938 95.2604 983.938 84.0909C983.938 72.8883 986.076 63.3925 990.351 55.6037C994.66 47.8149 1000.48 41.8987 1007.8 37.8551C1015.13 33.8115 1023.36 31.7898 1032.51 31.7898C1041.63 31.7898 1049.84 33.8115 1057.17 37.8551C1064.53 41.8987 1070.36 47.8149 1074.67 55.6037C1078.98 63.3925 1081.13 72.8883 1081.13 84.0909ZM1055.98 84.0909C1055.98 77.4621 1055.03 71.8608 1053.14 67.2869C1051.29 62.7131 1048.6 59.2495 1045.09 56.8963C1041.61 54.5431 1037.42 53.3665 1032.51 53.3665C1027.64 53.3665 1023.45 54.5431 1019.93 56.8963C1016.42 59.2495 1013.72 62.7131 1011.83 67.2869C1009.97 71.8608 1009.04 77.4621 1009.04 84.0909C1009.04 90.7197 1009.97 96.321 1011.83 100.895C1013.72 105.469 1016.42 108.932 1019.93 111.286C1023.45 113.639 1027.64 114.815 1032.51 114.815C1037.42 114.815 1041.61 113.639 1045.09 111.286C1048.6 108.932 1051.29 105.469 1053.14 100.895C1055.03 96.321 1055.98 90.7197 1055.98 84.0909Z" fill="white" fill-opacity="0.49"/>
<rect x="918" y="169" width="136" height="251" fill="white"/>
<rect x="1059" y="174" width="240" height="241" stroke="white" stroke-width="10"/>
</svg>
